<svg xmlns:xlink="http://www.w3.org/1999/xlink" xmlns="http://www.w3.org/2000/svg" width="24" height="24" class="sc-TOsTZ jjpBnY"><path d="M11.9999802,2 C14.7158369,2 15.0563809,2.01151157 16.1229475,2.06017771 C17.1873706,2.10876447 17.9142666,2.27778605 18.55038,2.5250069 C19.2079684,2.78056371 19.7656443,3.12249698 20.3215737,3.67842633 C20.877503,4.23435568 21.2194363,4.79203161 21.4749931,5.44962002 C21.722214,6.0857334 21.8912355,6.81262938 21.9398223,7.87705248 C21.9884884,8.94361912 22,9.28416306 22,12.0000198 C22,14.7158766 21.9884884,15.0564206 21.9398223,16.1229872 C21.8912355,17.1874103 21.722214,17.9143063 21.4749931,18.5504197 C21.2194363,19.2080081 20.877503,19.765684 20.3215737,20.3216134 C19.7656443,20.8775427 19.2079684,21.219476 18.55038,21.4750328 C17.9142666,21.7222536 17.1873706,21.8912752 16.1229475,21.939862 C15.0563809,21.9885281 14.7158369,22 11.9999802,22 C9.28412336,22 8.94361912,21.9885281 7.87701279,21.939862 C6.81258969,21.8912752 6.0856937,21.7222536 5.44958032,21.4750328 C4.79199192,21.219476 4.23431598,20.8775427 3.67838663,20.3216134 C3.12245728,19.765684 2.78052401,19.2079684 2.5249672,18.5504197 C2.27774635,17.9143063 2.10872478,17.1874103 2.06013802,16.1229872 C2.01147187,15.0564206 2,14.7158766 2,12.0000198 C2,9.28416306 2.01147187,8.94361912 2.06013802,7.87705248 C2.10872478,6.81262938 2.27774635,6.0857334 2.5249672,5.44962002 C2.78052401,4.79203161 3.12245728,4.23435568 3.67838663,3.67842633 C4.23431598,3.12249698 4.79199192,2.78056371 5.44958032,2.5250069 C6.0856937,2.27778605 6.81258969,2.10876447 7.87701279,2.06017771 C8.94361912,2.01151157 9.28412336,2 11.9999802,2 Z M11.9999802,3.80183828 C9.32985208,3.80183828 9.01360151,3.81200021 7.95910218,3.86011063 C6.98415175,3.9046088 6.45465931,4.06751733 6.10228624,4.2044256 C5.635512,4.38583204 5.30235134,4.60256708 4.95243936,4.95247906 C4.60252738,5.30239103 4.38579234,5.63555169 4.2044256,6.10228624 C4.06747764,6.454699 3.9045691,6.98419144 3.86007094,7.95918157 C3.81196052,9.01364121 3.80179858,9.32989177 3.80179858,12.0000198 C3.80179858,14.6701479 3.81196052,14.9863985 3.86007094,16.0408978 C3.9045691,17.0158483 4.06747764,17.5453407 4.2044256,17.8977535 C4.38579234,18.364488 4.60252738,18.6976487 4.95243936,19.0475606 C5.30235134,19.3974726 5.635512,19.6142077 6.10228624,19.7955744 C6.45465931,19.9325224 6.98415175,20.0954309 7.95914187,20.1399291 C9.01344273,20.1880395 9.3296933,20.1982014 11.9999802,20.1982014 C14.670267,20.1982014 14.9865176,20.1880395 16.0408184,20.1399291 C17.0158086,20.0954309 17.545301,19.9325224 17.8977138,19.7955744 C18.3644483,19.6142077 18.697609,19.3974726 19.0475209,19.0475606 C19.3974329,18.6976487 19.614168,18.364488 19.7955347,17.8977535 C19.9324827,17.5453407 20.0953912,17.0158483 20.1398894,16.0408581 C20.1879998,14.9863985 20.1981617,14.6701479 20.1981617,12.0000198 C20.1981617,9.32989177 20.1879998,9.01364121 20.1398894,7.95914187 C20.0953912,6.98419144 19.9324827,6.454699 19.7955347,6.10228624 C19.614168,5.63555169 19.3974329,5.30239103 19.0475209,4.95247906 C18.697609,4.60256708 18.3644483,4.38583204 17.8977138,4.2044256 C17.545301,4.06751733 17.0158086,3.9046088 16.0408184,3.86011063 C14.9863588,3.81200021 14.6701082,3.80183828 11.9999802,3.80183828 Z M12.0198413,6.88095238 C14.8579587,6.88095238 17.1587302,9.18172388 17.1587302,12.0198413 C17.1587302,14.8579587 14.8579587,17.1587302 12.0198413,17.1587302 C9.18172388,17.1587302 6.88095238,14.8579587 6.88095238,12.0198413 C6.88095238,9.18172388 9.18172388,6.88095238 12.0198413,6.88095238 Z M12.0198413,15.3556203 C13.8621189,15.3556203 15.3556203,13.8621189 15.3556203,12.0198413 C15.3556203,10.1775636 13.8621189,8.68406223 12.0198413,8.68406223 C10.1775636,8.68406223 8.68406223,10.1775636 8.68406223,12.0198413 C8.68406223,13.8621189 10.1775636,15.3556203 12.0198413,15.3556203 Z M18.5079365,6.64283745 C18.5079365,7.30032544 17.974968,7.83333333 17.31748,7.83333333 C16.659992,7.83333333 16.1269841,7.30032544 16.1269841,6.64283745 C16.1269841,5.98534947 16.659992,5.45238095 17.31748,5.45238095 C17.974968,5.45238095 18.5079365,5.98534947 18.5079365,6.64283745 Z" class="socialIcon" viewBox="0 0 24 24" fill="#999999"></path></svg>