<svg xmlns:xlink="http://www.w3.org/1999/xlink" xmlns="http://www.w3.org/2000/svg" width="24" height="24" class="sc-TOsTZ jjpBnY"><path d="M19.7617538,6.52953922 C20.5669425,6.03033367 21.1847743,5.23876932 21.4747315,4.29582551 C20.7208429,4.75920844 19.8877737,5.09432327 18.9989435,5.27574751 C18.2896637,4.489961 17.2759289,4 16.1540177,4 C14.0016435,4 12.2574397,5.80846454 12.2574397,8.03871154 C12.2574397,8.35533728 12.2897811,8.66387404 12.3566943,8.95854398 C9.11809591,8.789831 6.24640488,7.18359093 4.3226507,4.7384082 C3.98696954,5.33699263 3.79515173,6.03033367 3.79515173,6.76989744 C3.79515173,8.17044634 4.48324235,9.40690452 5.52931854,10.1326015 C4.89029759,10.1118012 4.28919411,9.92806587 3.76281035,9.62761808 L3.76281035,9.67730753 C3.76281035,11.6348404 5.10553501,13.2676585 6.89100194,13.6374404 C6.56312731,13.732197 6.21963961,13.7795753 5.86276927,13.7795753 C5.61184481,13.7795753 5.36649645,13.7553084 5.13006985,13.7079301 C5.62522745,15.311859 7.06497623,16.4812942 8.77126255,16.5124946 C7.43634443,17.5964177 5.75570816,18.2412249 3.93009333,18.2412249 C3.61560134,18.2412249 3.30445501,18.2238914 3,18.1857576 C4.72524505,19.3309259 6.77390386,20 8.97534777,20 C16.1462112,20 20.0650936,13.8454427 20.0650936,8.50787231 C20.0650936,8.33222591 20.0628632,8.15773509 20.0550566,7.9855554 C20.8167518,7.41586018 21.4791923,6.70403004 22,5.8939766 C21.3007572,6.21522461 20.549099,6.43247147 19.7617538,6.52953922 Z" class="socialIcon" viewBox="0 0 24 24" fill="#999999"></path></svg>